General
Complete name                    : Ted[2012]BRrip[Ac3-5.1]-=[CaLvIn]=-
Imdb Link                        : http://www.imdb.com/title/tt1637725/
Format                           : AVI
Format/Info                      : Audio Video Interleave
File size                        : 736 MiB
Duration                         : 1h 46mn
Overall bit rate                 : 971 Kbps
Writing application              : VirtualDubMod 1.5.10.3 | www.virtualdub-fr.org || (build 2550/release)
Writing library                  : VirtualDubMod build 2550/release

Video
ID                               : 0
Format                           : MPEG-4 Visual
Format profile                   : Advanced Simple@L5
Format settings, BVOP            : 2
Format settings, QPel            : No
Format settings, GMC             : No warppoints
Format settings, Matrix          : Default (H.263)
Codec ID                         : XVID
Codec ID/Hint                    : XviD
Duration                         : 1h 46mn
Bit rate                         : 705 Kbps
Width                            : 720 pixels
Height                           : 384 pixels
Display aspect ratio             : 16:9
Frame rate                       : 23.976 fps
Color space                      : YUV
Chroma subsampling               : 4:2:0
Bit depth                        : 8 bits
Scan type                        : Progressive
Compression mode                 : Lossy
Bits/(Pixel*Frame)               : 0.106
Stream size                      : 535 MiB (73%)
Writing library                  : XviD 1.2.1 (UTC 2008-12-04)

Audio
ID                               : 1
Format                           : AC-3
Format/Info                      : Audio Coding 3
Mode extension                   : CM (complete main)
Codec ID                         : 2000
Duration                         : 1h 46mn
Bit rate mode                    : Constant
Bit rate                         : 256 Kbps
Channel(s)                       : 6 channels
Channel positions                : Front: L C R, Side: L R, LFE
Sampling rate                    : 48.0 KHz
Bit depth                        : 16 bits
Compression mode                 : Lossy
Stream size                      : 194 MiB (26%)
Alignment                        : Split accross interleaves
Interleave, duration             : 42 ms (1.00 video frame)
Interleave, preload duration     : 500 ms


Screens
 
http://img696.imageshack.us/img696/9744/30044642.png 
http://img338.imageshack.us/img338/1885/29437287.png 
http://img845.imageshack.us/img845/5066/53048836.png 
http://img94.imageshack.us/img94/2479/57962243.png 
http://img822.imageshack.us/img822/963/62492612.png 
http://img825.imageshack.us/img825/1774/61501264.png 
http://img546.imageshack.us/img546/4310/57418869.png 
http://img835.imageshack.us/img835/8904/57536430.png 
http://img838.imageshack.us/img838/6643/73105621.png 
http://img836.imageshack.us/img836/4165/10594150.png
